REM COMMENT "Generated by IcecastMetadataRecorder https://github.com/eshaz/icecast-metadata-js"
REM BR "16"
REM METAINT "64"
REM DATE "2020-07-29T21:16:11.222Z"
TITLE "isics-all"
FILE "isics-all.mp3" WAVE
  TRACK 1 AUDIO
    TITLE "2020-07-29T21:21:47.750Z TO:24605 Dallas County Law 1 FROM:2559982"
    INDEX 01 05:36:40
  TRACK 2 AUDIO
    TITLE "2020-07-29T21:21:49.190Z TO:177 Polk County - Westcom Fire 2 FROM:UNKNOWN"
    INDEX 01 05:37:73
  TRACK 3 AUDIO
    TITLE "2020-07-29T21:21:50.558Z TO:7 Polk County - Westcom Law Enforcement 4 FROM:1377"
    INDEX 01 05:39:25
  TRACK 4 AUDIO
    TITLE "2020-07-29T21:21:54.086Z TO:24631 Dallas County Fire/EMS Operations FROM:UNKNOWN"
    INDEX 01 05:42:65
  TRACK 5 AUDIO
    TITLE "2020-07-29T21:22:01.070Z TO:7 Polk County - Westcom Law Enforcement 4 FROM:1481"
    INDEX 01 05:49:64
  TRACK 6 AUDIO
    TITLE "2020-07-29T21:22:03.158Z TO:1101 Polk County - Westcom Law Enforcement 1 FROM:1004"
    INDEX 01 05:51:70
  TRACK 7 AUDIO
    TITLE "2020-07-29T21:22:05.246Z TO:24631 Dallas County Fire/EMS Operations FROM:2520043"
    INDEX 01 05:54:02
  TRACK 8 AUDIO
    TITLE "2020-07-29T21:22:07.334Z TO:24631 Dallas County Fire/EMS Operations FROM:2559984"
    INDEX 01 05:56:08
  TRACK 9 AUDIO
    TITLE "2020-07-29T21:22:09.422Z TO:24605 Dallas County Law 1 FROM:2559982"
    INDEX 01 05:58:15
  TRACK 10 AUDIO
    TITLE "END"
    INDEX 01 05:59:48